<?xml version="1.0" encoding="iso-8859-1"?>
<!-- Generator: Adobe Illustrator 19.0.0, SVG Export Plug-In . SVG Version: 6.00 Build 0)  -->
<svg version="1.1" id="Layer_1" xmlns="http://www.w3.org/2000/svg" xmlns:xlink="http://www.w3.org/1999/xlink" x="0px" y="0px"
	 viewBox="0 0 512 512" style="enable-background:new 0 0 512 512;" xml:space="preserve">
<g>
	<g>
		<g>
			<polygon points="188.328,174.819 188.328,176.501 189.125,174.504 			"/>
			<polygon points="307.803,168.515 256,147.928 204.193,168.515 256,189.103 			"/>
			<polygon points="188.328,190.794 188.328,258.864 256,285.755 323.667,258.864 323.667,190.794 256,217.68 			"/>
			<path d="M256,0C114.623,0,0,114.623,0,256c0,141.386,114.623,256,256,256c141.386,0,256-114.614,256-256
				C511.996,114.623,397.386,0,256,0z M257.381,407.965C216.06,366.821,134.352,274.578,134.352,221.81
				c0-67.844,55.189-123.038,123.029-123.038c67.836,0,123.029,55.194,123.029,123.038
				C380.41,274.578,298.707,366.821,257.381,407.965z"/>
			<polygon points="323.667,176.501 323.667,174.819 322.871,174.504 			"/>
		</g>
	</g>
</g>
<g>
</g>
<g>
</g>
<g>
</g>
<g>
</g>
<g>
</g>
<g>
</g>
<g>
</g>
<g>
</g>
<g>
</g>
<g>
</g>
<g>
</g>
<g>
</g>
<g>
</g>
<g>
</g>
<g>
</g>
</svg>
